Coordinates
version=1
nRows=23
nColumns=38
inDegrees=no

Units are S.I. units (second, meters, Newtons, ...)
If the header above contains a line with 'inDegrees', this indicates whether rotational values are in degrees (yes) or radians (no).

endheader
time	pelvis_tilt	pelvis_list	pelvis_rotation	pelvis_tx	pelvis_ty	pelvis_tz	hip_flexion_r	hip_adduction_r	hip_rotation_r	knee_angle_r	ankle_angle_r	subtalar_angle_r	mtp_angle_r	hip_flexion_l	hip_adduction_l	hip_rotation_l	knee_angle_l	ankle_angle_l	subtalar_angle_l	mtp_angle_l	lumbar_extension	lumbar_bending	lumbar_rotation	arm_flex_r	arm_add_r	arm_rot_r	elbow_flex_r	pro_sup_r	wrist_flex_r	wrist_dev_r	arm_flex_l	arm_add_l	arm_rot_l	elbow_flex_l	pro_sup_l	wrist_flex_l	wrist_dev_l
4.1	-0.877306	1.50176	-1.16279	0.927136	-0.300895	0.944306	0.357737	-0.0825624	-0.173518	0.941036	0.0465001	0	0	-0.0169398	-0.0736634	-0.46826	0.210311	0.0544692	0	0	-0.176154	0.0640169	-0.471619	-0.90431	-0.424134	0.0657825	1.61422	1.55846	0	0	-0.262848	-0.371239	0.0937779	0.698473	1.3661	0	0
4.11	-0.93822	1.50163	-1.10226	0.92671	-0.304234	0.944741	0.358771	-0.0801214	-0.176557	0.912962	0.0460433	0	0	-0.0203413	-0.0756682	-0.467437	0.206752	0.0532759	0	0	-0.174663	0.0641063	-0.47553	-0.895123	-0.409451	0.082997	1.57848	1.53279	0	0	-0.268167	-0.370674	0.0860524	0.708298	1.34624	0	0
4.12	-0.992222	1.49945	-1.04799	0.926255	-0.307508	0.945331	0.356656	-0.076776	-0.177622	0.883567	0.0452438	0	0	-0.0253224	-0.0784774	-0.466765	0.203458	0.0522527	0	0	-0.174977	0.0644791	-0.480097	-0.882683	-0.398834	0.111656	1.54236	1.42715	0	0	-0.275431	-0.373914	0.0940072	0.724108	1.27216	0	0
4.13	-1.03958	1.49774	-1.00038	0.925807	-0.31064	0.945826	0.354647	-0.0742861	-0.178243	0.854651	0.0448894	0	0	-0.0290698	-0.0810844	-0.465953	0.201788	0.0517776	0	0	-0.174844	0.0647945	-0.484496	-0.868325	-0.386941	0.136667	1.50435	1.37562	0	0	-0.281303	-0.371007	0.0810254	0.733427	1.25453	0	0
4.14	-1.08253	1.49593	-0.956517	0.925335	-0.313686	0.946274	0.352095	-0.0723461	-0.179015	0.82587	0.0437228	0	0	-0.0321579	-0.0838723	-0.464145	0.201359	0.0517785	0	0	-0.174638	0.0652189	-0.489076	-0.85184	-0.375844	0.164319	1.46458	1.31617	0	0	-0.286812	-0.367805	0.0704639	0.741353	1.23627	0	0
4.15	-1.12045	1.49341	-0.917158	0.92477	-0.316644	0.946733	0.34835	-0.0700229	-0.178842	0.797104	0.0417125	0	0	-0.0351079	-0.0873837	-0.462359	0.202292	0.0523251	0	0	-0.175015	0.0661302	-0.493606	-0.834721	-0.363606	0.190621	1.42207	1.28593	0	0	-0.291508	-0.362232	0.0536871	0.745732	1.24184	0	0
4.16	-1.15154	1.49046	-0.884447	0.924149	-0.319466	0.947173	0.343887	-0.0676963	-0.177709	0.768854	0.0388207	0	0	-0.0377233	-0.091334	-0.460218	0.204515	0.053205	0	0	-0.175717	0.0667168	-0.497656	-0.815669	-0.353501	0.223634	1.38065	1.20486	0	0	-0.296534	-0.362333	0.0589084	0.754524	1.191	0	0
4.17	-1.1815	1.48818	-0.85318	0.923537	-0.322178	0.947507	0.340101	-0.0657326	-0.175024	0.741514	0.036129	0	0	-0.0388544	-0.0951513	-0.458952	0.208211	0.0546937	0	0	-0.176087	0.0675258	-0.500924	-0.797293	-0.339785	0.24673	1.33421	1.21848	0	0	-0.299381	-0.354151	0.0366052	0.754755	1.22021	0	0
4.18	-1.2128	1.48676	-0.820519	0.922811	-0.324768	0.947607	0.337684	-0.0642006	-0.17063	0.716524	0.0356792	0	0	-0.0370606	-0.100167	-0.461155	0.217102	0.059899	0	0	-0.175377	0.0672328	-0.503671	-0.776426	-0.32943	0.278638	1.28924	1.15402	0	0	-0.305682	-0.357543	0.0556935	0.770476	1.10454	0	0
4.19	-1.22271	1.48389	-0.808712	0.922111	-0.327555	0.947953	0.331413	-0.0633773	-0.166098	0.690272	0.0337562	0	0	-0.0414424	-0.102264	-0.455486	0.216943	0.0589503	0	0	-0.176655	0.0679677	-0.504328	-0.758456	-0.313543	0.296218	1.24309	1.14925	0	0	-0.304539	-0.352725	0.0508279	0.766737	1.12902	0	0
4.2	-1.24464	1.48193	-0.784829	0.921293	-0.330197	0.948069	0.326742	-0.0621021	-0.160569	0.664772	0.0313333	0	0	-0.0427377	-0.105947	-0.45276	0.220614	0.0613217	0	0	-0.17631	0.068966	-0.505716	-0.738256	-0.299582	0.316014	1.19884	1.12232	0	0	-0.305219	-0.34534	0.0367134	0.764685	1.15691	0	0
4.21	-1.2749	1.48089	-0.752742	0.920273	-0.33294	0.947925	0.323014	-0.0608186	-0.154512	0.639854	0.0297449	0	0	-0.0432716	-0.109647	-0.451236	0.223842	0.0651064	0	0	-0.174272	0.0700282	-0.501744	-0.729636	-0.258118	0.142229	1.1481	0.0703329	0	0	-0.302014	-0.338316	0.0264291	0.760886	1.19179	0	0
4.22	-1.72682	1.48975	-0.307704	0.919453	-0.339041	0.945431	0.354658	-0.0515358	-0.145649	0.611003	0.0211363	0	0	-0.0120563	-0.118655	-0.457594	0.221653	0.0714762	0	0	-0.124051	0.086676	-0.4922	-0.717803	-0.254667	0.147267	1.0916	0.0456571	0	0	-0.292201	-0.310053	0.0280826	0.721295	1.19858	0	0
4.23	-1.75534	1.48773	-0.277821	0.918501	-0.341553	0.945096	0.350913	-0.0504387	-0.137691	0.585419	0.0185481	0	0	-0.0130674	-0.121487	-0.456678	0.222498	0.0755227	0	0	-0.121575	0.0885165	-0.489941	-0.694976	-0.239368	0.159531	1.03671	0.0228254	0	0	-0.28997	-0.304353	0.0259909	0.717983	1.20906	0	0
4.24	-1.92937	1.50978	-0.0968862	0.914248	-0.342569	0.943499	0.366764	-0.0685568	-0.124923	0.570912	0.029142	0	0	0.0038812	-0.105481	-0.446041	0.22371	0.0711485	0	0	-0.0991637	0.0558647	-0.498325	-0.672399	-0.212778	0.17997	0.969156	0.0122944	0	0	-0.303555	-0.311484	0.0211963	0.721217	1.21659	0	0
4.25	-1.39376	1.47816	-0.628714	0.916587	-0.342607	0.946449	0.308585	-0.058423	-0.123232	0.538756	0.0172629	0	0	-0.0491646	-0.118221	-0.446946	0.222059	0.079378	0	0	-0.166392	0.0768436	-0.491115	-0.638848	-0.198595	0.192041	0.936746	0.000229173	0	0	-0.292585	-0.319309	0.0310058	0.752284	1.22226	0	0
4.26	-1.4377	1.4809	-0.582723	0.915322	-0.34465	0.945896	0.307476	-0.0598822	-0.114998	0.512771	0.0105463	0	0	-0.0486166	-0.117409	-0.443828	0.216971	0.0799399	0	0	-0.163729	0.0757223	-0.478015	-0.585665	-0.0832584	-0.10306	0.740307	0	0	0	-0.283327	-0.322222	0.0542802	0.753264	1.22563	0	0
4.27	-1.46047	1.48081	-0.55787	0.914279	-0.346857	0.945272	0.30266	-0.061149	-0.108493	0.487007	0.00396202	0	0	-0.051691	-0.11781	-0.443373	0.212169	0.0827478	0	0	-0.161534	0.0768057	-0.47409	-0.559699	-0.0692562	-0.124314	0.680437	0	0	0	-0.280444	-0.319643	0.0627456	0.753472	1.23111	0	0
4.28	-1.45662	1.47915	-0.559107	0.913251	-0.34911	0.944736	0.293626	-0.0623097	-0.101729	0.459961	-0.00354999	0	0	-0.0582417	-0.118336	-0.442989	0.206696	0.0854324	0	0	-0.162595	0.0805165	-0.467768	-0.322892	-0.136033	-1.55564	0	0.198477	0	0	-0.273195	-0.312188	0.0556106	0.745533	1.30874	0	0
4.29	-1.46719	1.48061	-0.545966	0.912414	-0.351167	0.943852	0.281157	-0.0658501	-0.0583476	0.42137	-0.00730858	0	0	-0.0606268	-0.116768	-0.441337	0.202924	0.0887113	0	0	-0.161192	0.0810575	-0.461614	-0.313039	-0.123525	-1.52559	0	0.210435	0	0	-0.267454	-0.309736	0.0654516	0.743812	1.32672	0	0
4.3	-1.452	1.47807	-0.557587	0.911194	-0.353346	0.943434	0.278694	-0.0669777	-0.0905863	0.411763	-0.0123797	0	0	-0.0676774	-0.118735	-0.441634	0.199511	0.0922019	0	0	-0.163971	0.0835355	-0.454924	-0.302833	-0.11168	-1.4961	0	0.218607	0	0	-0.261566	-0.308083	0.075967	0.742575	1.34438	0	0
4.31	-1.45681	1.4793	-0.549544	0.910038	-0.355191	0.942643	0.274026	-0.070341	-0.0839294	0.391478	-0.0135527	0	0	-0.0693974	-0.118646	-0.441174	0.198412	0.0959076	0	0	-0.163382	0.0828916	-0.450111	-0.293185	-0.0861672	-1.32756	0	0.0113634	0	0	-0.258651	-0.309149	0.0948437	0.747235	1.30204	0	0
4.32	-1.44905	1.47895	-0.554038	0.908876	-0.356998	0.941997	0.266349	-0.0724599	-0.0749718	0.370269	-0.0152095	0	0	-0.073413	-0.119372	-0.440508	0.196728	0.0996221	0	0	-0.165417	0.0845312	-0.440723	-0.282466	-0.0841101	-1.35866	0	0.0321559	0	0	-0.25035	-0.30883	0.110156	0.745992	1.31271	0	0
